<?xml version="1.0" encoding="UTF-8"?>
<svg width="50px" height="50px" viewBox="0 0 50 50" version="1.1" xmlns="http://www.w3.org/2000/svg" xmlns:xlink="http://www.w3.org/1999/xlink">
    <!-- Generator: Sketch 43.1 (39012) - http://www.bohemiancoding.com/sketch -->
    <title>brand</title>
    <desc>Created with Sketch.</desc>
    <defs></defs>
    <g id="Page-1" stroke="none" stroke-width="1" fill="none" fill-rule="evenodd">
        <g id="Desktop-About-Copy" transform="translate(-695.000000, -1200.000000)" fill-rule="nonzero" fill="#D7263D">
            <g id="Group-2" transform="translate(695.000000, 1200.000000)">
                <g id="brand">
                    <path d="M45.8333333,12.5 L45.8333333,11.575 C48.0880208,9.27385417 48.0503125,5.58052083 45.7491667,3.32583333 C43.4479167,1.07114583 39.7546875,1.10885417 37.5,3.41 C35.2778125,5.67802083 35.2778125,9.306875 37.5,11.575 L37.5,12.5 L35.8333333,12.5 L35.8333333,14.1666667 L47.5,14.1666667 L47.5,12.5 L45.8333333,12.5 Z M44.7726042,10.2698958 C44.669375,10.3854167 44.5596875,10.495 44.4441667,10.5983333 C44.2678125,10.75625 44.166875,10.9816667 44.1666667,11.2183333 L44.1666667,12.5 L42.5,12.5 L42.5,10.345 L44.7558333,8.08916667 L43.5775,6.91083333 L41.6666667,8.82166667 L39.7558333,6.91083333 L38.5775,8.08916667 L40.8333333,10.345 L40.8333333,12.5 L39.1666667,12.5 L39.1666667,11.2191667 C39.1666667,10.9821875 39.0657292,10.7563542 38.8891667,10.5983333 C37.1738542,9.064375 37.0267708,6.4303125 38.5607292,4.71489583 C40.0946875,2.99958333 42.72875,2.8525 44.4441667,4.38645833 C46.1594792,5.92052083 46.3065625,8.55458333 44.7726042,10.2698958 Z" id="Shape"></path>
                    <rect id="Rectangle-path" x="6.66666667" y="6.66666667" width="1.66666667" height="1.66666667"></rect>
                    <rect id="Rectangle-path" x="36.6666667" y="19.1666667" width="1.66666667" height="1.66666667"></rect>
                    <path d="M7.5,3.33333333 C5.19885417,3.33333333 3.33333333,5.19885417 3.33333333,7.5 C3.33333333,9.80114583 5.19885417,11.6666667 7.5,11.6666667 C9.80114583,11.6666667 11.6666667,9.80114583 11.6666667,7.5 C11.6639583,5.2 9.8,3.33604167 7.5,3.33333333 Z M7.5,10 C6.11927083,10 5,8.88072917 5,7.5 C5,6.11927083 6.11927083,5 7.5,5 C8.88072917,5 10,6.11927083 10,7.5 C10,8.88072917 8.88072917,10 7.5,10 Z" id="Shape"></path>
                    <path d="M49.1666667,29.1666667 L31.6666667,29.1666667 L31.6666667,0.833333333 C31.6666667,0.373125 31.2935417,0 30.8333333,0 L0.833333333,0 C0.373125,0 0,0.373125 0,0.833333333 L0,45.8333333 C0,46.2935417 0.373125,46.6666667 0.833333333,46.6666667 L4.16666667,46.6666667 L4.16666667,47.5 C4.16666667,48.8807292 5.2859375,50 6.66666667,50 C8.04739583,50 9.16666667,48.8807292 9.16666667,47.5 L9.16666667,46.6666667 L16.6666667,46.6666667 L16.6666667,49.1666667 C16.6666667,49.626875 17.0397917,50 17.5,50 L49.1666667,50 C49.626875,50 50,49.626875 50,49.1666667 L50,30 C50,29.5397917 49.626875,29.1666667 49.1666667,29.1666667 Z M48.25,30.8333333 C47.8513542,32.7719792 46.1459375,34.1641667 44.1666667,34.1666667 L22.5,34.1666667 C20.5207292,34.1641667 18.8153125,32.7719792 18.4166667,30.8333333 L48.25,30.8333333 Z M7.5,47.5 C7.5,47.9602083 7.126875,48.3333333 6.66666667,48.3333333 C6.20645833,48.3333333 5.83333333,47.9602083 5.83333333,47.5 L5.83333333,45 L7.5,45 L7.5,47.5 Z M7.5,43.3333333 L5.83333333,43.3333333 L5.83333333,41.6666667 L7.5,41.6666667 L7.5,43.3333333 Z M7.5,40 L5.83333333,40 L5.83333333,26.6666667 L7.5,26.6666667 L7.5,40 Z M5.93166667,25 L6.66666667,23.53 L7.40166667,25 L5.93166667,25 Z M16.6666667,30 L16.6666667,45 L9.16666667,45 L9.16666667,25 C9.16677083,24.8707292 9.136875,24.7432292 9.07916667,24.6275 L7.4125,21.2941667 C7.166875,20.8822917 6.63385417,20.7473958 6.22197917,20.9930208 C6.098125,21.066875 5.9946875,21.1703125 5.92083333,21.2941667 L4.25416667,24.6275 C4.19645833,24.7432292 4.1665625,24.8707292 4.16666667,25 L4.16666667,45 L1.66666667,45 L1.66666667,1.66666667 L30,1.66666667 L30,29.1666667 L17.5,29.1666667 C17.0397917,29.1666667 16.6666667,29.5397917 16.6666667,30 Z M48.3333333,48.3333333 L18.3333333,48.3333333 L18.3333333,34.075 C19.4280208,35.199375 20.9307292,35.8335417 22.5,35.8333333 L44.1666667,35.8333333 C45.7359375,35.8335417 47.2386458,35.199375 48.3333333,34.075 L48.3333333,48.3333333 Z" id="Shape"></path>
                    <path d="M49.1666667,15.8333333 L34.1666667,15.8333333 C33.7064583,15.8333333 33.3333333,16.2064583 33.3333333,16.6666667 L33.3333333,26.6666667 C33.3333333,27.126875 33.7064583,27.5 34.1666667,27.5 L49.1666667,27.5 C49.626875,27.5 50,27.126875 50,26.6666667 L50,16.6666667 C50,16.2064583 49.626875,15.8333333 49.1666667,15.8333333 Z M48.3333333,25.8333333 L35,25.8333333 L35,17.5 L48.3333333,17.5 L48.3333333,25.8333333 Z" id="Shape"></path>
                    <rect id="Rectangle-path" x="40.8333333" y="22.5" width="4.16666667" height="1.66666667"></rect>
                    <rect id="Rectangle-path" x="14.1666667" y="5" width="14.1666667" height="1.66666667"></rect>
                    <rect id="Rectangle-path" x="14.1666667" y="8.33333333" width="10.8333333" height="1.66666667"></rect>
                    <rect id="Rectangle-path" x="20" y="41.6666667" width="1.66666667" height="1.66666667"></rect>
                    <rect id="Rectangle-path" x="24.1666667" y="41.6666667" width="10.8333333" height="1.66666667"></rect>
                    <rect id="Rectangle-path" x="24.1666667" y="45" width="7.5" height="1.66666667"></rect>
                    <rect id="Rectangle-path" x="40.8333333" y="19.1666667" width="5.83333333" height="1.66666667"></rect>
                </g>
            </g>
        </g>
    </g>
</svg>