<?xml version="1.0" encoding="UTF-8"?>
<svg width="27px" height="50px" viewBox="0 0 27 50" version="1.1" xmlns="http://www.w3.org/2000/svg" xmlns:xlink="http://www.w3.org/1999/xlink">
    <!-- Generator: Sketch 43.1 (39012) - http://www.bohemiancoding.com/sketch -->
    <title>cellphone</title>
    <desc>Created with Sketch.</desc>
    <defs></defs>
    <g id="Page-1" stroke="none" stroke-width="1" fill="none" fill-rule="evenodd">
        <g id="Desktop-About-Copy" transform="translate(-312.000000, -1793.000000)" fill-rule="nonzero" fill="#D7263D">
            <g id="cellphone" transform="translate(312.000000, 1793.000000)">
                <path d="M22.3060345,0 L4.13074713,0 C1.85057471,0.00268498563 0.00268498563,1.85057471 0,4.13074713 L0,45.4382184 C0.00268498563,47.7183908 1.85057471,49.5662805 4.13074713,49.5689655 L22.3060345,49.5689655 C24.5862069,49.5662805 26.4340966,47.7183908 26.4367816,45.4382184 L26.4367816,4.13074713 C26.4340966,1.85057471 24.5862069,0.00268498563 22.3060345,0 Z M9.93527299,47.9166667 L4.13074713,47.9166667 C2.7619208,47.9166667 1.65229885,46.8070447 1.65229885,45.4382184 L1.65229885,42.9597701 L9.93527299,42.9597701 C8.80541038,44.4189565 8.80541038,46.4574802 9.93527299,47.9166667 Z M13.2183908,47.9166667 C11.8495645,47.9166667 10.7399425,46.8070447 10.7399425,45.4382184 C10.7399425,44.0693921 11.8495645,42.9597701 13.2183908,42.9597701 C14.5872171,42.9597701 15.6968391,44.0693921 15.6968391,45.4382184 C15.6968391,46.8070447 14.5872171,47.9166667 13.2183908,47.9166667 Z M24.7844828,45.4382184 C24.7844828,46.8070447 23.6748608,47.9166667 22.3060345,47.9166667 L16.5015086,47.9166667 C17.6313712,46.4574802 17.6313712,44.4189565 16.5015086,42.9597701 L24.7844828,42.9597701 L24.7844828,45.4382184 Z M24.7844828,41.3074713 L1.65229885,41.3074713 L1.65229885,9.08764368 L24.7844828,9.08764368 L24.7844828,41.3074713 Z M24.7844828,7.43534483 L1.65229885,7.43534483 L1.65229885,4.13074713 C1.65229885,2.7619208 2.7619208,1.65229885 4.13074713,1.65229885 L22.3060345,1.65229885 C23.6748608,1.65229885 24.7844828,2.7619208 24.7844828,4.13074713 L24.7844828,7.43534483 Z" id="Shape"></path>
                <rect id="Rectangle-path" x="7.43534483" y="4.13074713" width="8.26149425" height="1.65229885"></rect>
                <path d="M9.9137931,16.5229885 L6.6091954,16.5229885 C5.24036907,16.5229885 4.13074713,17.6326105 4.13074713,19.0014368 L4.13074713,22.3060345 C4.13074713,23.6748608 5.24036907,24.7844828 6.6091954,24.7844828 L9.9137931,24.7844828 C11.2826194,24.7844828 12.3922414,23.6748608 12.3922414,22.3060345 L12.3922414,19.0014368 C12.3922414,17.6326105 11.2826194,16.5229885 9.9137931,16.5229885 Z M10.7399425,22.3060345 C10.7399425,22.7622755 10.3700341,23.1321839 9.9137931,23.1321839 L6.6091954,23.1321839 C6.15295438,23.1321839 5.78304598,22.7622755 5.78304598,22.3060345 L5.78304598,19.0014368 C5.78304598,18.5451958 6.15295438,18.1752874 6.6091954,18.1752874 L9.9137931,18.1752874 C10.3700341,18.1752874 10.7399425,18.5451958 10.7399425,19.0014368 L10.7399425,22.3060345 Z" id="Shape"></path>
                <path d="M19.8275862,16.5229885 L16.5229885,16.5229885 C15.1541622,16.5229885 14.0445402,17.6326105 14.0445402,19.0014368 L14.0445402,22.3060345 C14.0445402,23.6748608 15.1541622,24.7844828 16.5229885,24.7844828 L19.8275862,24.7844828 C21.1964125,24.7844828 22.3060345,23.6748608 22.3060345,22.3060345 L22.3060345,19.0014368 C22.3060345,17.6326105 21.1964125,16.5229885 19.8275862,16.5229885 Z M20.6537356,22.3060345 C20.6537356,22.7622755 20.2838272,23.1321839 19.8275862,23.1321839 L16.5229885,23.1321839 C16.0667475,23.1321839 15.6968391,22.7622755 15.6968391,22.3060345 L15.6968391,19.0014368 C15.6968391,18.5451958 16.0667475,18.1752874 16.5229885,18.1752874 L19.8275862,18.1752874 C20.2838272,18.1752874 20.6537356,18.5451958 20.6537356,19.0014368 L20.6537356,22.3060345 Z" id="Shape"></path>
                <path d="M9.9137931,26.4367816 L6.6091954,26.4367816 C5.24036907,26.4367816 4.13074713,27.5464036 4.13074713,28.9152299 L4.13074713,32.2198276 C4.13074713,33.5886539 5.24036907,34.6982759 6.6091954,34.6982759 L9.9137931,34.6982759 C11.2826194,34.6982759 12.3922414,33.5886539 12.3922414,32.2198276 L12.3922414,28.9152299 C12.3922414,27.5464036 11.2826194,26.4367816 9.9137931,26.4367816 Z M10.7399425,32.2198276 C10.7399425,32.6760686 10.3700341,33.045977 9.9137931,33.045977 L6.6091954,33.045977 C6.15295438,33.045977 5.78304598,32.6760686 5.78304598,32.2198276 L5.78304598,28.9152299 C5.78304598,28.4589889 6.15295438,28.0890805 6.6091954,28.0890805 L9.9137931,28.0890805 C10.3700341,28.0890805 10.7399425,28.4589889 10.7399425,28.9152299 L10.7399425,32.2198276 Z" id="Shape"></path>
                <path d="M19.8275862,26.4367816 L16.5229885,26.4367816 C15.1541622,26.4367816 14.0445402,27.5464036 14.0445402,28.9152299 L14.0445402,32.2198276 C14.0445402,33.5886539 15.1541622,34.6982759 16.5229885,34.6982759 L19.8275862,34.6982759 C21.1964125,34.6982759 22.3060345,33.5886539 22.3060345,32.2198276 L22.3060345,28.9152299 C22.3060345,27.5464036 21.1964125,26.4367816 19.8275862,26.4367816 Z M20.6537356,32.2198276 C20.6537356,32.6760686 20.2838272,33.045977 19.8275862,33.045977 L16.5229885,33.045977 C16.0667475,33.045977 15.6968391,32.6760686 15.6968391,32.2198276 L15.6968391,28.9152299 C15.6968391,28.4589889 16.0667475,28.0890805 16.5229885,28.0890805 L19.8275862,28.0890805 C20.2838272,28.0890805 20.6537356,28.4589889 20.6537356,28.9152299 L20.6537356,32.2198276 Z" id="Shape"></path>
                <path d="M6.6091954,10.7399425 L4.13074713,10.7399425 C3.67450611,10.7399425 3.3045977,11.1098509 3.3045977,11.566092 L3.3045977,14.0445402 C3.3045977,14.5007813 3.67450611,14.8706897 4.13074713,14.8706897 C4.58698815,14.8706897 4.95689655,14.5007813 4.95689655,14.0445402 L4.95689655,12.3922414 L6.6091954,12.3922414 C7.06543642,12.3922414 7.43534483,12.022333 7.43534483,11.566092 C7.43534483,11.1098509 7.06543642,10.7399425 6.6091954,10.7399425 Z" id="Shape"></path>
                <path d="M11.566092,10.7399425 L9.9137931,10.7399425 C9.45755208,10.7399425 9.08764368,11.1098509 9.08764368,11.566092 C9.08764368,12.022333 9.45755208,12.3922414 9.9137931,12.3922414 L11.566092,12.3922414 C12.022333,12.3922414 12.3922414,12.022333 12.3922414,11.566092 C12.3922414,11.1098509 12.022333,10.7399425 11.566092,10.7399425 Z" id="Shape"></path>
                <rect id="Rectangle-path" x="17.3491379" y="4.13074713" width="1.65229885" height="1.65229885"></rect>
            </g>
        </g>
    </g>
</svg>