<?xml version="1.0" encoding="UTF-8"?>
<svg width="30px" height="30px" viewBox="0 0 30 30" version="1.1" xmlns="http://www.w3.org/2000/svg" xmlns:xlink="http://www.w3.org/1999/xlink">
    <!-- Generator: Sketch 43.1 (39012) - http://www.bohemiancoding.com/sketch -->
    <title>Facebook__x28_alt_x29_</title>
    <desc>Created with Sketch.</desc>
    <defs></defs>
    <g id="Page-1" stroke="none" stroke-width="1" fill="none" fill-rule="evenodd">
        <g id="Menu-mob" transform="translate(-235.000000, -453.000000)" fill-rule="nonzero" fill="#FFFFFF">
            <g id="Group" transform="translate(149.000000, 453.000000)">
                <path d="M116,5.00033333 C116,2.373 113.628,0 111,0 L91,0 C88.372,0 86,2.373 86,5.00033333 L86,24.9996667 C86,27.627 88.372,30 91.0003333,30 L101,30 L101,18.6666667 L97.3333333,18.6666667 L97.3333333,13.6666667 L101,13.6666667 L101,11.7186667 C101,8.359 103.522667,5.33333333 106.625,5.33333333 L110.666667,5.33333333 L110.666667,10.3333333 L106.625,10.3333333 C106.182667,10.3333333 105.666667,10.8703333 105.666667,11.6746667 L105.666667,13.6666667 L110.666667,13.6666667 L110.666667,18.6666667 L105.666667,18.6666667 L105.666667,30 L111,30 C113.628,30 116,27.627 116,24.9996667 L116,5.00033333 Z" id="Facebook__x28_alt_x29_"></path>
            </g>
        </g>
    </g>
</svg>