<?xml version="1.0" encoding="UTF-8"?>
<svg width="50px" height="50px" viewBox="0 0 50 50" version="1.1" xmlns="http://www.w3.org/2000/svg" xmlns:xlink="http://www.w3.org/1999/xlink">
    <!-- Generator: Sketch 43.1 (39012) - http://www.bohemiancoding.com/sketch -->
    <title>Group 6</title>
    <desc>Created with Sketch.</desc>
    <defs></defs>
    <g id="Page-1" stroke="none" stroke-width="1" fill="none" fill-rule="evenodd">
        <g id="Desktop-About-Copy" transform="translate(-300.000000, -1496.000000)" fill-rule="nonzero" fill="#D7263D">
            <g id="Group-6" transform="translate(300.000000, 1496.000000)">
                <g id="computer">
                    <path d="M30.859375,33.7890625 C30.3203583,33.7890625 29.8828125,34.2266083 29.8828125,34.765625 C29.8828125,35.3046417 30.3203583,35.7421875 30.859375,35.7421875 C31.3983917,35.7421875 31.8359375,35.3046417 31.8359375,34.765625 C31.8359375,34.2266083 31.3983917,33.7890625 30.859375,33.7890625 Z" id="Shape"></path>
                    <path d="M45.1171875,0 L4.8828125,0 C2.19039922,0 0,2.19039922 0,4.8828125 L0,34.765625 C0,37.4580383 2.19039922,39.6484375 4.8828125,39.6484375 L20.1171875,39.6484375 L20.1171875,44.140625 L19.140625,44.140625 C17.8367615,44.140625 16.6110992,44.6487427 15.688324,45.5711365 C14.7659302,46.4939117 14.2578125,47.719574 14.2578125,49.0234375 C14.2578125,49.5628357 14.6949768,50 15.234375,50 L34.765625,50 C35.3050232,50 35.7421875,49.5628357 35.7421875,49.0234375 C35.7421875,46.3310242 33.5517883,44.140625 30.859375,44.140625 L29.8828125,44.140625 L29.8828125,39.6484375 L45.1171875,39.6484375 C47.8096008,39.6484375 50,37.4580383 50,34.765625 L50,4.8828125 C50,2.19039922 47.8096008,0 45.1171875,0 Z M4.8828125,1.953125 L45.1171875,1.953125 C46.7327118,1.953125 48.046875,3.26728818 48.046875,4.8828125 L48.046875,29.8828125 L43.5546875,29.8828125 L43.5546875,7.421875 C43.5546875,6.88247676 43.1175232,6.4453125 42.578125,6.4453125 L34.765625,6.4453125 C34.2262268,6.4453125 33.7890625,6.88247676 33.7890625,7.421875 L33.7890625,29.8828125 L28.9009094,29.8828125 C28.8906098,28.8726807 28.8642883,27.8770447 28.8223267,26.9111633 C28.6514282,22.93396 28.2619477,20.2697754 28.0593872,19.0979004 C30.0743104,17.6143646 30.6243896,14.8647309 29.3926239,12.7285004 L26.007843,6.86607363 C25.8331299,6.56394961 25.510788,6.37779238 25.1621246,6.37779238 C24.8130799,6.37779238 24.4907379,6.56394961 24.3164062,6.86607363 L20.9300995,12.7288818 C19.7689057,14.743042 20.1805115,17.3519135 22.0046997,18.8915253 C21.7933654,20.059967 21.3668823,22.819519 21.1814881,26.909256 C21.137619,27.885437 21.1097717,28.8818359 21.0990906,29.8828125 L16.2109375,29.8828125 L16.2109375,15.234375 C16.2109375,15.0794982 16.1743164,14.9383545 16.1144257,14.812851 C16.1117554,14.8078918 16.1102295,14.8025513 16.1079406,14.7975922 L12.2016906,6.98509219 C12.0361328,6.65435791 11.6981506,6.4453125 11.328125,6.4453125 C10.9580994,6.4453125 10.6201172,6.65435791 10.4545594,6.98509219 L6.54830937,14.7975922 C6.54602051,14.8025513 6.54449463,14.8078918 6.54220586,14.812851 C6.4811707,14.9394989 6.4453125,15.0829315 6.4453125,15.234375 L6.4453125,29.8828125 L1.953125,29.8828125 L1.953125,4.8828125 C1.953125,3.26728818 3.26728818,1.953125 4.8828125,1.953125 L4.8828125,1.953125 Z M35.7421875,29.8828125 L35.7421875,8.3984375 L41.6015625,8.3984375 L41.6015625,10.3515625 L40.625,10.3515625 C40.0856018,10.3515625 39.6484375,10.7887268 39.6484375,11.328125 C39.6484375,11.8675232 40.0856018,12.3046875 40.625,12.3046875 L41.6015625,12.3046875 L41.6015625,15.234375 L40.625,15.234375 C40.0856018,15.234375 39.6484375,15.6715393 39.6484375,16.2109375 C39.6484375,16.7503357 40.0856018,17.1875 40.625,17.1875 L41.6015625,17.1875 L41.6015625,20.1171875 L40.625,20.1171875 C40.0856018,20.1171875 39.6484375,20.5543518 39.6484375,21.09375 C39.6484375,21.6331482 40.0856018,22.0703125 40.625,22.0703125 L41.6015625,22.0703125 L41.6015625,25.9765625 L40.625,25.9765625 C40.0856018,25.9765625 39.6484375,26.4137268 39.6484375,26.953125 C39.6484375,27.4925232 40.0856018,27.9296875 40.625,27.9296875 L41.6015625,27.9296875 L41.6015625,29.8828125 L35.7421875,29.8828125 Z M25.1621246,20.0496674 C25.5168915,20.0496674 25.8701324,20.0088501 26.215744,19.9325562 C26.3969422,21.0941314 26.663208,23.1494903 26.820755,25.9765625 L23.18573,25.9765625 C23.3509063,23.1513977 23.6297607,21.0639953 23.8224029,19.8631287 C24.2549896,19.9863434 24.7055054,20.0496674 25.1621246,20.0496674 Z M25.1621246,18.0965424 C22.9301453,18.0965424 21.49086,15.6673432 22.6219178,13.7050629 L25.1621246,9.30747988 L27.7008057,13.7046814 C28.8276672,15.6589508 27.4082184,18.0965424 25.1621246,18.0965424 Z M23.0960846,27.9296875 L26.9065857,27.9296875 C26.9271851,28.5713195 26.9412994,29.2240143 26.9481659,29.8828125 L23.0522156,29.8828125 C23.0594635,29.2282104 23.0743408,28.5755157 23.0960846,27.9296875 Z M12.3046875,29.8828125 L12.3046875,16.2109375 L14.2578125,16.2109375 L14.2578125,29.8828125 L12.3046875,29.8828125 Z M8.3984375,29.8828125 L8.3984375,16.2109375 L10.3515625,16.2109375 L10.3515625,29.8828125 L8.3984375,29.8828125 Z M9.00192266,14.2578125 L11.328125,9.60540771 L13.6543273,14.2578125 L9.00192266,14.2578125 Z M33.6215973,48.046875 L16.3772583,48.046875 C16.5206909,47.6398468 16.7549133,47.2667694 17.0692443,46.9520568 C17.6231385,46.3985443 18.3586121,46.09375 19.140625,46.09375 L30.859375,46.09375 C32.1327209,46.09375 33.2187652,46.9100952 33.6215973,48.046875 Z M27.9296875,44.140625 L22.0703125,44.140625 L22.0703125,39.6484375 L27.9296875,39.6484375 L27.9296875,44.140625 Z M45.1171875,37.6953125 L4.8828125,37.6953125 C3.26728818,37.6953125 1.953125,36.3811493 1.953125,34.765625 L1.953125,31.8359375 L48.046875,31.8359375 L48.046875,34.765625 C48.046875,36.3811493 46.7327118,37.6953125 45.1171875,37.6953125 Z" id="Shape"></path>
                    <path d="M26.953125,33.7890625 L21.09375,33.7890625 C20.5543518,33.7890625 20.1171875,34.2262268 20.1171875,34.765625 C20.1171875,35.3050232 20.5543518,35.7421875 21.09375,35.7421875 L26.953125,35.7421875 C27.4925232,35.7421875 27.9296875,35.3050232 27.9296875,34.765625 C27.9296875,34.2262268 27.4925232,33.7890625 26.953125,33.7890625 Z" id="Shape"></path>
                </g>
            </g>
        </g>
    </g>
</svg>