<?xml version="1.0" encoding="UTF-8"?>
<svg width="25px" height="25px" viewBox="0 0 25 25" version="1.1" xmlns="http://www.w3.org/2000/svg" xmlns:xlink="http://www.w3.org/1999/xlink">
    <!-- Generator: Sketch 43.1 (39012) - http://www.bohemiancoding.com/sketch -->
    <title>instagram</title>
    <desc>Created with Sketch.</desc>
    <defs></defs>
    <g id="Page-1" stroke="none" stroke-width="1" fill="none" fill-rule="evenodd">
        <g id="Desktop-HP" transform="translate(-140.000000, -1371.000000)" fill-rule="nonzero" fill="#D7263D">
            <g id="footer-desktop" transform="translate(0.000000, 1188.000000)">
                <g id="Group" transform="translate(140.000000, 183.000000)">
                    <g id="instagram">
                        <path d="M21.3378906,0 L3.66210938,0 C1.64299014,0 0,1.64299014 0,3.66210938 L0,21.3378906 C0,23.3570099 1.64299014,25 3.66210938,25 L21.3378906,25 C23.3570099,25 25,23.3570099 25,21.3378906 L25,3.66210938 C25,1.64299014 23.3570099,0 21.3378906,0 Z M12.5488281,19.0429688 C8.91399385,19.0429688 5.95703125,16.0860062 5.95703125,12.4511719 C5.95703125,8.8163376 8.91399385,5.859375 12.5488281,5.859375 C16.1836624,5.859375 19.140625,8.8163376 19.140625,12.4511719 C19.140625,16.0860062 16.1836624,19.0429688 12.5488281,19.0429688 Z M19.8730469,7.32421875 C18.661499,7.32421875 17.6757812,6.33850098 17.6757812,5.12695312 C17.6757812,3.91540527 18.661499,2.9296875 19.8730469,2.9296875 C21.0845947,2.9296875 22.0703125,3.91540527 22.0703125,5.12695312 C22.0703125,6.33850098 21.0845947,7.32421875 19.8730469,7.32421875 Z" id="Shape"></path>
                        <path d="M19.8730469,4.39453125 C19.4688797,4.39453125 19.140625,4.72278594 19.140625,5.12695312 C19.140625,5.53112031 19.4688797,5.859375 19.8730469,5.859375 C20.2772141,5.859375 20.6054688,5.53112031 20.6054688,5.12695312 C20.6054688,4.72278594 20.2772141,4.39453125 19.8730469,4.39453125 Z" id="Shape"></path>
                        <path d="M12.5488281,7.32421875 C9.72213745,7.32421875 7.421875,9.6244812 7.421875,12.4511719 C7.421875,15.2778625 9.72213745,17.578125 12.5488281,17.578125 C15.3755188,17.578125 17.6757812,15.2778625 17.6757812,12.4511719 C17.6757812,9.6244812 15.3755188,7.32421875 12.5488281,7.32421875 Z" id="Shape"></path>
                    </g>
                </g>
            </g>
        </g>
    </g>
</svg>