<?xml version="1.0" encoding="UTF-8"?>
<svg width="30px" height="30px" viewBox="0 0 30 30" version="1.1" xmlns="http://www.w3.org/2000/svg" xmlns:xlink="http://www.w3.org/1999/xlink">
    <!-- Generator: Sketch 43.1 (39012) - http://www.bohemiancoding.com/sketch -->
    <title>Group 3</title>
    <desc>Created with Sketch.</desc>
    <defs></defs>
    <g id="Page-1" stroke="none" stroke-width="1" fill="none" fill-rule="evenodd">
        <g id="Menu-mob" transform="translate(-149.000000, -453.000000)" fill-rule="nonzero" fill="#FFFFFF">
            <g id="Group" transform="translate(149.000000, 453.000000)">
                <g id="Group-3">
                    <path d="M19.8730469,4.39453125 C19.4688797,4.39453125 19.140625,4.72278594 19.140625,5.12695312 C19.140625,5.53112031 19.4688797,5.859375 19.8730469,5.859375 C20.2772141,5.859375 20.6054688,5.53112031 20.6054688,5.12695312 C20.6054688,4.72278594 20.2772141,4.39453125 19.8730469,4.39453125 Z" id="Shape"></path>
                    <path d="M15.1269531,10 C12.3002625,10 10,12.3002625 10,15.1269531 C10,17.9536438 12.3002625,20.2539062 15.1269531,20.2539062 C17.9536438,20.2539062 20.2539062,17.9536438 20.2539062,15.1269531 C20.2539062,12.3002625 17.9536438,10 15.1269531,10 Z" id="Shape"></path>
                    <path d="M25.6054688,0 L4.39453125,0 C1.97158816,0 0,1.97158816 0,4.39453125 L0,25.6054688 C0,28.0284118 1.97158816,30 4.39453125,30 L25.6054688,30 C28.0284118,30 30,28.0284118 30,25.6054688 L30,4.39453125 C30,1.97158816 28.0284118,0 25.6054688,0 Z M15.0585938,22.8515625 C10.6967926,22.8515625 7.1484375,19.3032074 7.1484375,14.9414062 C7.1484375,10.5796051 10.6967926,7.03125 15.0585938,7.03125 C19.4203949,7.03125 22.96875,10.5796051 22.96875,14.9414062 C22.96875,19.3032074 19.4203949,22.8515625 15.0585938,22.8515625 Z M23.8476563,8.7890625 C22.3937988,8.7890625 21.2109375,7.60620117 21.2109375,6.15234375 C21.2109375,4.69848633 22.3937988,3.515625 23.8476563,3.515625 C25.3015137,3.515625 26.484375,4.69848633 26.484375,6.15234375 C26.484375,7.60620117 25.3015137,8.7890625 23.8476563,8.7890625 Z" id="Shape"></path>
                </g>
            </g>
        </g>
    </g>
</svg>