<?xml version="1.0" encoding="UTF-8"?>
<svg width="50px" height="49px" viewBox="0 0 50 49" version="1.1" xmlns="http://www.w3.org/2000/svg" xmlns:xlink="http://www.w3.org/1999/xlink">
    <!-- Generator: Sketch 43.1 (39012) - http://www.bohemiancoding.com/sketch -->
    <title>layers</title>
    <desc>Created with Sketch.</desc>
    <defs></defs>
    <g id="Page-1" stroke="none" stroke-width="1" fill="none" fill-rule="evenodd">
        <g id="Desktop-About-Copy" transform="translate(-1090.000000, -1202.000000)" fill-rule="nonzero" fill="#D7263D">
            <g id="layers" transform="translate(1090.000000, 1202.000000)">
                <path d="M41.1790909,19.4189942 L49.9572727,14.4035397 L24.9790909,0.218085106 L0,14.4035397 L8.77818182,19.4189942 L0,24.4035397 L8.77818182,29.4189942 L0,34.4035397 L24.9790909,48.6744487 L49.9572727,34.4035397 L41.1790909,29.4189942 L49.9572727,24.4035397 L41.1790909,19.4189942 Z M24.9790909,2.3089942 L46.2836364,14.4080851 L24.9790909,26.5808124 L3.67363636,14.4080851 L24.9790909,2.3089942 Z M10.6136364,20.467176 L24.9790909,28.6744487 L39.3445455,20.467176 L46.2836364,24.4080851 L24.9790909,36.5808124 L3.67363636,24.4080851 L10.6136364,20.467176 Z M46.2836364,34.4080851 L24.9790909,46.5808124 L3.67363636,34.4080851 L10.6136364,30.467176 L24.9790909,38.6744487 L39.3445455,30.467176 L46.2836364,34.4080851 Z" id="Shape"></path>
            </g>
        </g>
    </g>
</svg>