<?xml version="1.0" encoding="UTF-8"?>
<svg width="50px" height="50px" viewBox="0 0 50 50" version="1.1" xmlns="http://www.w3.org/2000/svg" xmlns:xlink="http://www.w3.org/1999/xlink">
    <!-- Generator: Sketch 43.1 (39012) - http://www.bohemiancoding.com/sketch -->
    <title>Group 4</title>
    <desc>Created with Sketch.</desc>
    <defs></defs>
    <g id="Page-1" stroke="none" stroke-width="1" fill="none" fill-rule="evenodd">
        <g id="Desktop-About-Copy" transform="translate(-1090.000000, -1496.000000)" fill-rule="nonzero" fill="#D7263D">
            <g id="Group-4" transform="translate(1090.000000, 1496.000000)">
                <path d="M47.5,5 L6.66666667,5 C6.66503906,3.61979167 5.546875,2.5016276 4.16666667,2.5 L4.16666667,0 L2.5,0 L2.5,2.5 C1.11979167,2.5016276 0.00162760417,3.61979167 0,5 L0,45 C0.00162760417,46.3802083 1.11979167,47.4983724 2.5,47.5 L2.5,50 L4.16666667,50 L4.16666667,47.5 C5.546875,47.4983724 6.66503906,46.3802083 6.66666667,45 L47.5,45 C48.8802083,44.9983724 49.9983724,43.8802083 50,42.5 L50,7.5 C49.9983724,6.11979167 48.8802083,5.0016276 47.5,5 Z M4.16666667,45.8333333 L2.5,45.8333333 C2.04020187,45.8329265 1.66707354,45.4597981 1.66666667,45 L1.66666667,5 C1.66707354,4.54020187 2.04020187,4.16707354 2.5,4.16666667 L4.16666667,4.16666667 C4.62646479,4.16707354 4.99959312,4.54020187 5,5 L5,45 C4.99959312,45.4597981 4.62646479,45.8329265 4.16666667,45.8333333 Z M48.3333333,42.5 C48.3329265,42.9597981 47.9597981,43.3329265 47.5,43.3333333 L6.66666667,43.3333333 L6.66666667,6.66666667 L47.5,6.66666667 C47.9597981,6.66707354 48.3329265,7.04020187 48.3333333,7.5 L48.3333333,42.5 Z" id="Shape"></path>
                <path d="M38.3333333,34.1666667 L36.6666667,34.1666667 C35.6058756,34.1699219 34.6634928,34.8433431 34.3164063,35.8455404 L30.7922364,32.9089355 C30.8170573,32.7738444 30.8308919,32.6371256 30.8333333,32.5 L30.8333333,30.8333333 C30.8317057,29.453125 29.7135417,28.3349609 28.3333333,28.3333333 L26.6666667,28.3333333 C25.2864583,28.3349609 24.1682943,29.453125 24.1666667,30.8333333 L24.1666667,32.5 C24.1691081,32.6371256 24.1829427,32.7738444 24.2077636,32.9089355 L20.6835938,35.8455404 C20.3365072,34.8433431 19.3941244,34.1699219 18.3333333,34.1666667 L16.6666667,34.1666667 C15.2864583,34.1682943 14.1682943,35.2864583 14.1666667,36.6666667 L9.16666667,36.6666667 L9.16666667,38.3333333 L14.1666667,38.3333333 C14.1682943,39.7135417 15.2864583,40.8317057 16.6666667,40.8333333 L18.3333333,40.8333333 C19.7135417,40.8317057 20.8317057,39.7135417 20.8333333,38.3333333 L20.8333333,37.8902181 L25.041097,34.3835449 C25.4907227,34.7786458 26.0681152,34.9975585 26.6666667,35 L28.3333333,35 C28.9318848,34.9975585 29.5092773,34.7786458 29.958903,34.3835449 L34.1666667,37.8902181 L34.1666667,38.3333333 C34.1682943,39.7135417 35.2864583,40.8317057 36.6666667,40.8333333 L38.3333333,40.8333333 C39.7135417,40.8317057 40.8317057,39.7135417 40.8333333,38.3333333 L45.8333333,38.3333333 L45.8333333,36.6666667 L40.8333333,36.6666667 C40.8317057,35.2864583 39.7135417,34.1682943 38.3333333,34.1666667 Z M19.1666667,38.3333333 C19.1662598,38.7931315 18.7931315,39.1662598 18.3333333,39.1666667 L16.6666667,39.1666667 C16.2068685,39.1662598 15.8337402,38.7931315 15.8333333,38.3333333 L15.8333333,36.6666667 C15.8337402,36.2068685 16.2068685,35.8337402 16.6666667,35.8333333 L18.3333333,35.8333333 C18.7931315,35.8337402 19.1662598,36.2068685 19.1666667,36.6666667 L19.1666667,38.3333333 Z M29.1666667,32.5 C29.1662598,32.9597981 28.7931315,33.3329265 28.3333333,33.3333333 L26.6666667,33.3333333 C26.2068685,33.3329265 25.8337402,32.9597981 25.8333333,32.5 L25.8333333,30.8333333 C25.8337402,30.3735352 26.2068685,30.0004069 26.6666667,30 L28.3333333,30 C28.7931315,30.0004069 29.1662598,30.3735352 29.1666667,30.8333333 L29.1666667,32.5 Z M39.1666667,38.3333333 C39.1662598,38.7931315 38.7931315,39.1662598 38.3333333,39.1666667 L36.6666667,39.1666667 C36.2068685,39.1662598 35.8337402,38.7931315 35.8333333,38.3333333 L35.8333333,36.6666667 C35.8337402,36.2068685 36.2068685,35.8337402 36.6666667,35.8333333 L38.3333333,35.8333333 C38.7931315,35.8337402 39.1662598,36.2068685 39.1666667,36.6666667 L39.1666667,38.3333333 Z" id="Shape"></path>
                <path d="M16.6666667,24.1666667 C20.8089193,24.1666667 24.1666667,20.8089193 24.1666667,16.6666667 C24.1666667,12.5244141 20.8089193,9.16666667 16.6666667,9.16666667 C12.5244141,9.16666667 9.16666667,12.5244141 9.16666667,16.6666667 C9.17154948,20.8068848 12.5264485,24.1617839 16.6666667,24.1666667 Z M22.4336751,15.8333333 L18.3333333,15.8333333 C17.8735352,15.8329265 17.5004069,15.4597981 17.5,15 L17.5,10.8996582 C20.0545248,11.2723796 22.0609538,13.2788085 22.4336751,15.8333333 Z M15.8333333,10.8996582 L15.8333333,15 C15.8349609,16.3802083 16.953125,17.4983724 18.3333333,17.5 L22.4336751,17.5 C22.0056152,20.4744467 19.3872071,22.6363119 16.385498,22.4934896 C13.3841959,22.3502604 10.9830729,19.9491374 10.8398438,16.9478353 C10.6970215,13.9461262 12.8588867,11.3277181 15.8333333,10.8996582 Z" id="Shape"></path>
                <polygon id="Shape" points="33.3333333 10 35 10 35 11.6666667 33.3333333 11.6666667"></polygon>
                <polygon id="Shape" points="36.6666667 10 42.5 10 42.5 11.6666667 36.6666667 11.6666667"></polygon>
                <polygon id="Shape" points="44.1666667 10 45.8333333 10 45.8333333 11.6666667 44.1666667 11.6666667"></polygon>
                <polygon id="Shape" points="33.3333333 13.3333333 35 13.3333333 35 15 33.3333333 15"></polygon>
                <polygon id="Shape" points="36.6666667 13.3333333 42.5 13.3333333 42.5 15 36.6666667 15"></polygon>
                <polygon id="Shape" points="44.1666667 13.3333333 45.8333333 13.3333333 45.8333333 15 44.1666667 15"></polygon>
                <polygon id="Shape" points="26.6666667 20 28.3333333 20 28.3333333 21.6666667 26.6666667 21.6666667"></polygon>
                <polygon id="Shape" points="30 20 35.8333333 20 35.8333333 21.6666667 30 21.6666667"></polygon>
                <polygon id="Shape" points="37.5 20 39.1666667 20 39.1666667 21.6666667 37.5 21.6666667"></polygon>
                <polygon id="Shape" points="26.6666667 16.6666667 28.3333333 16.6666667 28.3333333 18.3333333 26.6666667 18.3333333"></polygon>
                <polygon id="Shape" points="30 16.6666667 42.5 16.6666667 42.5 18.3333333 30 18.3333333"></polygon>
                <polygon id="Shape" points="44.1666667 16.6666667 45.8333333 16.6666667 45.8333333 18.3333333 44.1666667 18.3333333"></polygon>
                <path d="M28.3333333,15 L30,15 C30.9200032,14.9991863 31.6658529,14.2533366 31.6666667,13.3333333 L31.6666667,11.6666667 C31.6658529,10.7466634 30.9200032,10.0008138 30,10 L28.3333333,10 C27.4133301,10.0008138 26.6674804,10.7466634 26.6666667,11.6666667 L26.6666667,13.3333333 C26.6674804,14.2533366 27.4133301,14.9991863 28.3333333,15 Z M28.3333333,11.6666667 L30,11.6666667 L30,13.3333333 L28.3333333,13.3333333 L28.3333333,11.6666667 Z" id="Shape"></path>
                <path d="M44.1666667,20 L42.5,20 C41.5799968,20.0008137 40.8341471,20.7466634 40.8333333,21.6666667 L40.8333333,23.3333333 C40.8341471,24.2533366 41.5799968,24.9991863 42.5,25 L44.1666667,25 C45.0866699,24.9991863 45.8325196,24.2533366 45.8333333,23.3333333 L45.8333333,21.6666667 C45.8325196,20.7466634 45.0866699,20.0008137 44.1666667,20 Z M44.1666667,23.3333333 L42.5,23.3333333 L42.5,21.6666667 L44.1666667,21.6666667 L44.1666667,23.3333333 Z" id="Shape"></path>
                <polygon id="Shape" points="26.6666667 23.3333333 28.3333333 23.3333333 28.3333333 25 26.6666667 25"></polygon>
                <polygon id="Shape" points="30 23.3333333 35.8333333 23.3333333 35.8333333 25 30 25"></polygon>
                <polygon id="Shape" points="37.5 23.3333333 39.1666667 23.3333333 39.1666667 25 37.5 25"></polygon>
            </g>
        </g>
    </g>
</svg>