<?xml version="1.0" encoding="UTF-8"?>
<svg width="50px" height="50px" viewBox="0 0 50 50" version="1.1" xmlns="http://www.w3.org/2000/svg" xmlns:xlink="http://www.w3.org/1999/xlink">
    <!-- Generator: Sketch 43.1 (39012) - http://www.bohemiancoding.com/sketch -->
    <title>presentation</title>
    <desc>Created with Sketch.</desc>
    <defs></defs>
    <g id="Page-1" stroke="none" stroke-width="1" fill="none" fill-rule="evenodd">
        <g id="Desktop-About-Copy" transform="translate(-695.000000, -1793.000000)" fill-rule="nonzero" fill="#D7263D">
            <g id="Group-7" transform="translate(550.000000, 1793.000000)">
                <g id="presentation" transform="translate(145.000000, 0.000000)">
                    <path d="M12.8465696,10.6553015 C11.9108108,9.68814969 10.6214137,9.14376299 9.27567568,9.14760915 L9.01954262,9.14760915 C7.67515593,9.14490644 6.38762994,9.68918919 5.45280665,10.6553015 C4.57338877,11.5594595 4.10644491,12.7865904 4.16216216,14.0465696 L4.25945946,16.2852391 C4.40686071,18.8469854 6.5504158,20.835343 9.11600832,20.7900208 L9.17920998,20.7900208 C11.7448025,20.835343 13.8883576,18.8469854 14.0357588,16.2852391 L14.1372141,14.0465696 C14.1929314,12.7865904 13.7259875,11.5594595 12.8465696,10.6553015 Z M12.3742204,16.2162162 C12.2615385,17.8859667 10.852183,19.1698545 9.17920998,19.1268191 L9.11600832,19.1268191 C7.44303534,19.1698545 6.03367983,17.8859667 5.92099792,16.2162162 L5.89189189,15.5367983 C7.47713098,15.4662162 8.99927235,14.8950104 10.239501,13.9051975 C10.7509356,14.6615385 11.522973,15.2030146 12.408316,15.4261954 L12.3742204,16.2162162 Z M11.3313929,12.2852391 C11.2851351,11.9305613 11.0171518,11.6452183 10.6661123,11.5767152 C10.3163202,11.5043659 9.95977131,11.6654886 9.78295218,11.9758836 C9.77214137,11.9933472 8.74012474,13.6257796 5.82785863,13.8752599 C5.82068607,13.1047817 6.11704782,12.362474 6.65280665,11.8087318 C7.27370062,11.1689189 8.12796258,10.8087318 9.01954262,10.8108108 L9.27567568,10.8108108 C10.1672557,10.8087318 11.0215177,11.1689189 11.6424116,11.8087318 C12.1275468,12.3142412 12.4154886,12.9769231 12.4540541,13.6765073 C11.8785863,13.4193347 11.4611227,12.902079 11.3313929,12.2852391 Z" id="Shape"></path>
                    <path d="M45.2790021,30.6137214 C44.3432432,29.6465696 43.0538462,29.102183 41.7081081,29.1060291 L41.4519751,29.1060291 C40.1075884,29.1033264 38.8200624,29.6476091 37.8852391,30.6137214 C37.0058212,31.5178794 36.5387734,32.7450104 36.5945946,34.0049896 L36.6918919,36.243659 C36.8392931,38.8054054 38.9828482,40.793763 41.5484407,40.7484407 L41.6116424,40.7484407 C44.1772349,40.793763 46.32079,38.8054054 46.4681913,36.243659 L46.5696466,34.0049896 C46.6253638,32.7450104 46.15842,31.5178794 45.2790021,30.6137214 Z M44.9064449,33.9376299 L44.8066528,36.1746362 C44.6939709,37.8443867 43.2846154,39.1282744 41.6116424,39.0852391 L41.5484407,39.0852391 C39.8754678,39.1282744 38.4661123,37.8443867 38.3534304,36.1746362 L38.2536383,33.9334719 C38.2215177,33.1277547 38.5222453,32.3443867 39.0852391,31.7671518 C39.7061331,31.1273389 40.560395,30.7671518 41.4519751,30.7692308 L41.7081081,30.7692308 C42.5996881,30.7671518 43.4539501,31.1273389 44.0748441,31.7671518 C44.6388773,32.3454262 44.9397089,33.1305613 44.9064449,33.9376299 Z" id="Shape"></path>
                    <path d="M25.689605,12.0939709 C24.7972973,11.2308732 23.381289,11.2308732 22.4889813,12.0939709 L13.2049896,21.3779626 C13.0488565,21.5340956 12.8370062,21.6218295 12.6162162,21.6216216 L4.15800416,21.6216216 C1.86278586,21.6243243 0.0027027027,23.4844075 0,25.7796258 L0,37.4220374 C0,38.799896 1.11694387,39.9168399 2.49480249,39.9168399 C2.77806653,39.9168399 3.05925156,39.868711 3.32640333,39.7746362 L3.32640333,40.7484407 C3.32640333,41.2076923 3.6987526,41.5800416 4.15800416,41.5800416 L14.1372141,41.5800416 C14.5964657,41.5800416 14.968815,41.2076923 14.968815,40.7484407 L14.968815,27.2648649 C14.968711,27.0544699 15.0483368,26.8517672 15.191684,26.6977131 L25.7438669,15.3488565 C26.6277547,14.4351351 26.6034304,12.9778586 25.689605,12.0939709 Z M24.556237,14.1859667 C24.5532225,14.1888773 24.5502079,14.1917879 24.5471933,14.1945946 L13.970894,25.5659044 C13.5426195,26.0279626 13.3048857,26.6348233 13.3056133,27.2648649 L13.3056133,39.9168399 L4.98960499,39.9168399 L4.98960499,27.4428274 C4.98960499,26.9835759 4.61725572,26.6112266 4.15800416,26.6112266 C3.6987526,26.6112266 3.32640333,26.9835759 3.32640333,27.4428274 L3.32640333,37.4220374 C3.32640333,37.881289 2.95405405,38.2536383 2.49480249,38.2536383 C2.03555094,38.2536383 1.66320166,37.881289 1.66320166,37.4220374 L1.66320166,25.7796258 C1.66320166,24.4017672 2.78014553,23.2848233 4.15800416,23.2848233 L12.6162162,23.2848233 C13.2784823,23.2869023 13.9140333,23.0237006 14.3808732,22.5538462 L23.6648649,13.2698545 C23.9179834,13.0297297 24.3148649,13.0297297 24.5679834,13.2698545 C24.8176715,13.5260915 24.812474,13.9362786 24.556237,14.1859667 Z" id="Shape"></path>
                    <path d="M9.14760915,24.1164241 C8.68835759,24.1164241 8.31600832,24.4887734 8.31600832,24.9480249 L8.31600832,34.9272349 C8.31600832,35.3864865 8.68835759,35.7588358 9.14760915,35.7588358 C9.60686071,35.7588358 9.97920998,35.3864865 9.97920998,34.9272349 L9.97920998,24.9480249 C9.97920998,24.4887734 9.60686071,24.1164241 9.14760915,24.1164241 Z" id="Shape"></path>
                    <path d="M26.9796258,30.6137214 C26.0448025,29.6476091 24.7572765,29.1033264 23.4128898,29.1060291 L23.1567568,29.1060291 C21.8123701,29.1033264 20.5248441,29.6476091 19.5900208,30.6137214 C18.7106029,31.5178794 18.2435551,32.7450104 18.2993763,34.0049896 L18.3966736,36.243659 C18.5440748,38.8054054 20.6876299,40.793763 23.2532225,40.7484407 L23.3164241,40.7484407 C25.8820166,40.793763 28.0255717,38.8054054 28.172973,36.243659 L28.2702703,34.0049896 C28.3260915,32.7450104 27.8590437,31.5178794 26.9796258,30.6137214 Z M26.6112266,33.9376299 L26.5114345,36.1746362 C26.3987526,37.8443867 24.9893971,39.1282744 23.3164241,39.0852391 L23.2532225,39.0852391 C21.5802495,39.1282744 20.170894,37.8443867 20.0582121,36.1746362 L19.95842,33.9334719 C19.9262994,33.1277547 20.227027,32.3443867 20.7900208,31.7671518 C21.4109148,31.1273389 22.2651767,30.7671518 23.1567568,30.7692308 L23.4128898,30.7692308 C24.3044699,30.7671518 25.1587318,31.1273389 25.7796258,31.7671518 C26.343659,32.3454262 26.6444906,33.1305613 26.6112266,33.9376299 Z" id="Shape"></path>
                    <path d="M27.5817048,41.5800416 L18.9879418,41.5800416 C16.7692308,41.5823285 14.9711019,43.3804574 14.968815,45.5991684 L14.968815,49.0644491 C14.968815,49.5237006 15.3411642,49.8960499 15.8004158,49.8960499 C16.2596674,49.8960499 16.6320166,49.5237006 16.6320166,49.0644491 L16.6320166,45.5991684 C16.633368,44.2985447 17.687422,43.2445946 18.9879418,43.2432432 L27.5817048,43.2432432 C28.8823285,43.2445946 29.9362786,44.2985447 29.9376299,45.5991684 L29.9376299,49.0644491 C29.9376299,49.5237006 30.3099792,49.8960499 30.7692308,49.8960499 C31.2284823,49.8960499 31.6008316,49.5237006 31.6008316,49.0644491 L31.6008316,45.5991684 C31.5985447,43.3804574 29.8004158,41.5823285 27.5817048,41.5800416 Z" id="Shape"></path>
                    <path d="M45.8769231,41.5800416 L37.2831601,41.5800416 C35.0644491,41.5823285 33.2663202,43.3804574 33.2640333,45.5991684 L33.2640333,49.0644491 C33.2640333,49.5237006 33.6363825,49.8960499 34.0956341,49.8960499 C34.5548857,49.8960499 34.9272349,49.5237006 34.9272349,49.0644491 L34.9272349,45.5991684 C34.9285863,44.2985447 35.9826403,43.2445946 37.2831601,43.2432432 L45.8769231,43.2432432 C47.1775468,43.2445946 48.2314969,44.2985447 48.2328482,45.5991684 L48.2328482,49.0644491 C48.2328482,49.5237006 48.6051975,49.8960499 49.0644491,49.8960499 C49.5237006,49.8960499 49.8960499,49.5237006 49.8960499,49.0644491 L49.8960499,45.5991684 C49.893763,43.3804574 48.0956341,41.5823285 45.8769231,41.5800416 Z" id="Shape"></path>
                    <path d="M47.4428274,0 L18.2536383,0 C16.8880457,0.0133056133 15.7907484,1.12920998 15.8004158,2.49480249 L15.8004158,14.968815 C15.8004158,15.4280665 16.1727651,15.8004158 16.6320166,15.8004158 C17.0912682,15.8004158 17.4636175,15.4280665 17.4636175,14.968815 L17.4636175,4.98960499 L48.2328482,4.98960499 L48.2328482,24.9480249 C48.2435551,25.3955301 47.8903326,25.7673597 47.4428274,25.7796258 L19.0644491,25.7796258 C18.6051975,25.7796258 18.2328482,26.1519751 18.2328482,26.6112266 C18.2328482,27.0704782 18.6051975,27.4428274 19.0644491,27.4428274 L47.4428274,27.4428274 C48.80842,27.4295218 49.9057173,26.3136175 49.8960499,24.9480249 L49.8960499,2.49480249 C49.9057173,1.12920998 48.80842,0.0133056133 47.4428274,0 Z M48.2328482,3.32640333 L17.4636175,3.32640333 L17.4636175,2.49480249 C17.4529106,2.0472973 17.8061331,1.67546778 18.2536383,1.66320166 L47.4428274,1.66320166 C47.8903326,1.67546778 48.2435551,2.0472973 48.2328482,2.49480249 L48.2328482,3.32640333 Z" id="Shape"></path>
                    <path d="M45.7380457,10.6029106 C45.2787942,10.6029106 44.9064449,10.9752599 44.9064449,11.4345114 L44.9064449,23.2848233 C44.9064449,23.7440748 45.2787942,24.1164241 45.7380457,24.1164241 C46.1972973,24.1164241 46.5696466,23.7440748 46.5696466,23.2848233 L46.5696466,11.4345114 C46.5696466,10.9752599 46.1972973,10.6029106 45.7380457,10.6029106 Z" id="Shape"></path>
                    <path d="M42.4116424,15.8004158 C41.9523909,15.8004158 41.5800416,16.1727651 41.5800416,16.6320166 L41.5800416,23.2848233 C41.5800416,23.7440748 41.9523909,24.1164241 42.4116424,24.1164241 C42.870894,24.1164241 43.2432432,23.7440748 43.2432432,23.2848233 L43.2432432,16.6320166 C43.2432432,16.1727651 42.870894,15.8004158 42.4116424,15.8004158 Z" id="Shape"></path>
                    <path d="M39.0852391,14.1372141 C38.6259875,14.1372141 38.2536383,14.5095634 38.2536383,14.968815 L38.2536383,23.2848233 C38.2536383,23.7440748 38.6259875,24.1164241 39.0852391,24.1164241 C39.5444906,24.1164241 39.9168399,23.7440748 39.9168399,23.2848233 L39.9168399,14.968815 C39.9168399,14.5095634 39.5444906,14.1372141 39.0852391,14.1372141 Z" id="Shape"></path>
                    <path d="M35.7588358,19.1268191 C35.2995842,19.1268191 34.9272349,19.4991684 34.9272349,19.95842 L34.9272349,23.2848233 C34.9272349,23.7440748 35.2995842,24.1164241 35.7588358,24.1164241 C36.2180873,24.1164241 36.5904366,23.7440748 36.5904366,23.2848233 L36.5904366,19.95842 C36.5904366,19.4991684 36.2180873,19.1268191 35.7588358,19.1268191 Z" id="Shape"></path>
                    <path d="M46.1995842,6.79251559 C45.8174636,6.53762994 45.3010395,6.64074844 45.0461538,7.02286902 L42.2070686,11.2806653 L39.5841996,9.31392931 C39.2181913,9.03648649 38.6965696,9.10841996 38.4191268,9.47442827 C38.387526,9.51611227 38.3599792,9.56060291 38.3367983,9.60748441 L35.0985447,16.0848233 L31.9334719,18.4615385 C31.5660083,18.7371102 31.49158,19.258316 31.7671518,19.6257796 C32.0427235,19.9932432 32.5639293,20.0676715 32.9313929,19.7920998 L36.2577963,17.2972973 C36.362578,17.2201663 36.4480249,17.1196466 36.5072765,17.0037422 L39.3871102,11.2424116 L41.9126819,13.1392931 C42.2800416,13.4148649 42.8013514,13.3405405 43.0769231,12.9730769 C43.0861746,12.9608108 43.0950104,12.9482328 43.1035343,12.9355509 L46.4299376,7.94594595 C46.6848233,7.56382536 46.5817048,7.04740125 46.1995842,6.79251559 Z" id="Shape"></path>
                    <path d="M29.9376299,6.65280665 L19.95842,6.65280665 C19.4991684,6.65280665 19.1268191,7.02515593 19.1268191,7.48440748 C19.1268191,7.94365904 19.4991684,8.31600832 19.95842,8.31600832 L29.9376299,8.31600832 C30.3968815,8.31600832 30.7692308,7.94365904 30.7692308,7.48440748 C30.7692308,7.02515593 30.3968815,6.65280665 29.9376299,6.65280665 Z" id="Shape"></path>
                    <path d="M34.9272349,6.65280665 L33.2640333,6.65280665 C32.8047817,6.65280665 32.4324324,7.02515593 32.4324324,7.48440748 C32.4324324,7.94365904 32.8047817,8.31600832 33.2640333,8.31600832 L34.9272349,8.31600832 C35.3864865,8.31600832 35.7588358,7.94365904 35.7588358,7.48440748 C35.7588358,7.02515593 35.3864865,6.65280665 34.9272349,6.65280665 Z" id="Shape"></path>
                </g>
            </g>
        </g>
    </g>
</svg>