<?xml version="1.0" encoding="UTF-8"?>
<svg width="50px" height="49px" viewBox="0 0 50 49" version="1.1" xmlns="http://www.w3.org/2000/svg" xmlns:xlink="http://www.w3.org/1999/xlink">
    <!-- Generator: Sketch 43.1 (39012) - http://www.bohemiancoding.com/sketch -->
    <title>Group 9</title>
    <desc>Created with Sketch.</desc>
    <defs></defs>
    <g id="Page-1" stroke="none" stroke-width="1" fill="none" fill-rule="evenodd">
        <g id="Desktop-About-Copy" transform="translate(-695.000000, -1496.000000)" fill-rule="nonzero" fill="#D7263D">
            <g id="Group-9" transform="translate(695.000000, 1496.000000)">
                <g id="menu">
                    <path d="M15.8212231,36.3704133 C15.7060387,36.5420738 15.5275713,36.5935721 15.3600305,36.5935721 C15.1924897,36.5935721 15.024949,36.5420738 14.9097647,36.3704133 L13.7046548,34.5153587 L13.7046548,38.2765927 C13.7046548,38.5087078 13.3591019,38.6288702 13.0240203,38.6288702 C12.6780121,38.6288702 12.3429305,38.5087078 12.3429305,38.2765927 L12.3429305,32.9092121 C12.3429305,32.4972266 12.6780121,32.351315 13.0240203,32.351315 C13.5161713,32.351315 13.7365239,32.4371453 14.0820768,32.9435443 L15.3709571,34.867263 L16.6593823,32.9435443 C17.0053904,32.4371453 17.235759,32.351315 17.7283654,32.351315 C18.0739183,32.351315 18.4089999,32.4972266 18.4089999,32.9092121 L18.4089999,38.2765927 C18.4089999,38.5087078 18.063447,38.6288702 17.7283654,38.6288702 C17.3823572,38.6288702 17.0472756,38.5087078 17.0472756,38.2765927 L17.0472756,34.584023 L15.8212231,36.3704133 Z" id="Shape"></path>
                    <path d="M22.2009761,35.0475067 L23.7935242,35.0475067 C24.065778,35.0475067 24.2228474,35.2624557 24.2228474,35.4941975 C24.2228474,35.6916073 24.0867205,35.9237223 23.7935242,35.9237223 L22.2009761,35.9237223 L22.2009761,37.6496582 L25.1657197,37.6496582 C25.4384288,37.6496582 25.5954983,37.8814001 25.5954983,38.1478473 C25.5954983,38.3795892 25.4593713,38.6288702 25.1657197,38.6288702 L21.436116,38.6288702 C21.1324483,38.6288702 20.8387966,38.5083347 20.8387966,38.2765927 L20.8387966,32.7032194 C20.8387966,32.4714775 21.131993,32.3509419 21.436116,32.3509419 L25.1657197,32.3509419 C25.4593713,32.3509419 25.5954983,32.600223 25.5954983,32.8319648 C25.5954983,33.0984121 25.4384288,33.3301539 25.1657197,33.3301539 L22.2009761,33.3301539 L22.2009761,35.0475067 Z" id="Shape"></path>
                    <path d="M31.1794325,38.2765927 L28.9267373,34.8243479 L28.9267373,38.2765927 C28.9267373,38.5087078 28.5811844,38.6288702 28.2456476,38.6288702 C27.9000946,38.6288702 27.5645578,38.5087078 27.5645578,38.2765927 L27.5645578,32.7032194 C27.5645578,32.4628945 27.9000946,32.351315 28.2456476,32.351315 C28.738254,32.351315 28.9372086,32.4371453 29.2622741,32.9435443 L31.2841456,36.1468812 L31.2841456,32.6946363 C31.2841456,32.4543114 31.6192272,32.3509419 31.9652353,32.3509419 C32.3003169,32.3509419 32.6458697,32.4539382 32.6458697,32.6946363 L32.6458697,38.2765927 C32.6458697,38.5083347 32.3003169,38.6288702 31.9652353,38.6288702 C31.6401697,38.6288702 31.3574446,38.54304 31.1794325,38.2765927 Z" id="Shape"></path>
                    <path d="M38.7119392,32.6946363 C38.7119392,32.4543114 39.0470207,32.351315 39.3925735,32.351315 C39.7281105,32.351315 40.0736633,32.4543114 40.0736633,32.6946363 L40.0736633,36.7137346 C40.0736633,38.1478473 38.9632503,38.6803685 37.5591855,38.6803685 C36.1446497,38.6803685 35.0447079,38.1478473 35.0447079,36.7137346 L35.0447079,32.6946363 C35.0447079,32.4543114 35.3797895,32.351315 35.7257977,32.351315 C36.0608793,32.351315 36.4064322,32.4543114 36.4064322,32.6946363 L36.4064322,36.7137346 C36.4064322,37.3835842 36.8362107,37.7015296 37.5591855,37.7015296 C38.2821606,37.7015296 38.7114838,37.3835842 38.7114838,36.7137346 L38.7114838,32.6946363 L38.7119392,32.6946363 Z" id="Shape"></path>
                    <path d="M41.4053394,40.3290571 L36.4250984,40.3290571 C35.9361341,40.3290571 35.5400459,40.6537196 35.5400459,41.0541367 C35.5400459,41.454927 35.9361341,41.7792163 36.4250984,41.7792163 L41.4053394,41.7792163 C41.8943036,41.7792163 42.2899366,41.454927 42.2899366,41.0541367 C42.2899366,40.6537196 41.8943036,40.3290571 41.4053394,40.3290571 L41.4053394,40.3290571 Z" id="Shape"></path>
                    <path d="M32.3085118,40.3290571 L12.1521707,40.3290571 C11.6636619,40.3290571 11.2675735,40.6537196 11.2675735,41.0541367 C11.2675735,41.454927 11.6636619,41.7792163 12.1521707,41.7792163 L32.3085118,41.7792163 C32.797476,41.7792163 33.193109,41.454927 33.193109,41.0541367 C33.193109,40.6537196 32.797476,40.3290571 32.3085118,40.3290571 Z" id="Shape"></path>
                    <path d="M41.4053394,29.2561989 L12.1521707,29.2561989 C11.6636619,29.2561989 11.2675735,29.5808614 11.2675735,29.9812785 C11.2675735,30.3816957 11.6636619,30.7063582 12.1521707,30.7063582 L41.4053394,30.7063582 C41.8943036,30.7063582 42.2899366,30.3816957 42.2899366,29.9812785 C42.2899366,29.5808614 41.8943036,29.2561989 41.4053394,29.2561989 Z" id="Shape"></path>
                    <path d="M40.9131883,20.2652858 L40.0545418,20.2652858 C39.7231024,15.2688415 35.2673368,11.1571957 29.4357336,10.1839545 L29.6064613,8.84612098 C29.6624599,8.4095059 29.4885453,7.97214443 29.1302448,7.6463623 C28.7719442,7.32020712 28.2593058,7.1332463 27.7239037,7.1332463 L25.8340618,7.1332463 C25.2982044,7.1332463 24.7860212,7.32058027 24.4272655,7.6463623 C24.0689649,7.97251758 23.8955056,8.40987906 23.9515042,8.84612098 L24.1222319,10.1839545 C18.2906287,11.1571957 13.8348631,15.2684683 13.5034237,20.2649127 L12.6447772,20.2649127 C11.8853802,20.2649127 11.2675735,20.7713116 11.2675735,21.393768 L11.2675735,22.8902011 C11.2675735,23.5126575 11.8853802,24.0190564 12.6447772,24.0190564 L40.9127331,24.0190564 C41.67213,24.0190564 42.2899366,23.5126575 42.2899366,22.8902011 L42.2899366,21.393768 C42.2899366,20.7716848 41.6725852,20.2652858 40.9131883,20.2652858 L40.9131883,20.2652858 Z M25.7420965,8.61699138 C25.7666812,8.59497402 25.7971846,8.58377871 25.8340618,8.58377871 L27.7239037,8.58377871 C27.7603256,8.58377871 27.7912843,8.59497402 27.815869,8.61699138 C27.8404538,8.6393819 27.8509252,8.66587737 27.8468276,8.69535815 L27.6815632,9.99102287 C27.3833589,9.97460316 27.0824228,9.9652738 26.7792104,9.9652738 C26.4755427,9.9652738 26.1750619,9.97460316 25.8768576,9.99102287 L25.7111378,8.69535815 C25.7074956,8.66587737 25.7179669,8.6393819 25.7420965,8.61699138 Z M40.5207423,22.5688972 L13.0372232,22.5688972 L13.0372232,21.7154452 L16.7654611,21.7154452 C17.2544253,21.7154452 17.6505135,21.3907826 17.6505135,20.9903655 C17.6505135,20.5899484 17.2544253,20.2652858 16.7654611,20.2652858 L15.2762601,20.2652858 C15.6541375,15.3334008 20.6685242,11.4158063 26.7787551,11.4158063 C32.8894413,11.4158063 37.903828,15.3334008 38.2817052,20.2652858 L20.8820477,20.2652858 C20.3930834,20.2652858 19.9974505,20.5899484 19.9974505,20.9903655 C19.9974505,21.3907826 20.3930834,21.7154452 20.8820477,21.7154452 L40.5207423,21.7154452 L40.5207423,22.5688972 Z" id="Shape"></path>
                    <path d="M47.7254516,5.43041565e-15 L5.83251387,5.43041565e-15 C4.59052669,5.43041565e-15 3.57981865,0.828449215 3.57981865,1.84647149 L3.57981865,3.15631683 L2.75440699,3.15631683 C1.23561329,3.15631683 0,4.16948785 0,5.41440072 C0,6.6593136 1.23561329,7.67248462 2.75440699,7.67248462 L3.57981865,7.67248462 L3.57981865,10.7731983 L2.75440699,10.7731983 C1.23561329,10.7731983 0,11.7859962 0,13.0312822 C0,14.2761951 1.23561329,15.2889929 2.75440699,15.2889929 L3.57981865,15.2889929 L3.57981865,18.3900799 L2.75440699,18.3900799 C1.23561329,18.3900799 0,19.4028776 0,20.6481638 C0,21.8930766 1.23561329,22.9058744 2.75440699,22.9058744 L3.57981865,22.9058744 L3.57981865,26.0069614 L2.75440699,26.0069614 C1.23561329,26.0069614 0,27.0197592 0,28.264672 C0,29.5099582 1.23561329,30.5227559 2.75440699,30.5227559 L3.57981865,30.5227559 L3.57981865,33.6238429 L2.75440699,33.6238429 C1.23561329,33.6238429 0,34.6366407 0,35.8815536 C0,37.1268396 1.23561329,38.1396375 2.75440699,38.1396375 L3.57981865,38.1396375 L3.57981865,41.2407243 L2.75440699,41.2407243 C1.23561329,41.2407243 0,42.2535222 0,43.4984351 C0,44.7433479 1.23561329,45.756519 2.75440699,45.756519 L3.57981865,45.756519 L3.57981865,47.0663643 C3.57981865,48.0843866 4.59052669,48.9128358 5.83251387,48.9128358 L47.7254516,48.9128358 C48.9674388,48.9128358 49.9786021,48.0843866 49.9786021,47.0663643 L49.9786021,1.84647149 C49.9786021,0.828449215 48.9674388,0 47.7254516,0 L47.7254516,5.43041565e-15 Z M3.5793634,6.22232527 L2.75440699,6.22232527 C2.21126527,6.22232527 1.76919441,5.8599721 1.76919441,5.41440072 C1.76919441,4.96920259 2.21126527,4.60684933 2.75440699,4.60684933 L3.5793634,4.60684933 L3.5793634,6.22232527 Z M3.5793634,13.8388336 L2.75440699,13.8388336 C2.21126527,13.8388336 1.76919441,13.4764804 1.76919441,13.0312822 C1.76919441,12.585711 2.21126527,12.2237308 2.75440699,12.2237308 L3.5793634,12.2237308 L3.5793634,13.8388336 Z M3.5793634,21.4557152 L2.75440699,21.4557152 C2.21126527,21.4557152 1.76919441,21.0933619 1.76919441,20.6481638 C1.76919441,20.2025924 2.21126527,19.8402392 2.75440699,19.8402392 L3.5793634,19.8402392 L3.5793634,21.4557152 Z M3.5793634,29.0725966 L2.75440699,29.0725966 C2.21126527,29.0725966 1.76919441,28.7102434 1.76919441,28.264672 C1.76919441,27.8194739 2.21126527,27.4571206 2.75440699,27.4571206 L3.5793634,27.4571206 L3.5793634,29.0725966 Z M3.5793634,36.689105 L2.75440699,36.689105 C2.21126527,36.689105 1.76919441,36.3271248 1.76919441,35.8815536 C1.76919441,35.4363554 2.21126527,35.0740022 2.75440699,35.0740022 L3.5793634,35.0740022 L3.5793634,36.689105 Z M3.5793634,44.3059865 L2.75440699,44.3059865 C2.21126527,44.3059865 1.76919441,43.9436332 1.76919441,43.4984351 C1.76919441,43.0528637 2.21126527,42.6908837 2.75440699,42.6908837 L3.5793634,42.6908837 L3.5793634,44.3059865 Z M48.2089524,47.0659912 C48.2089524,47.2846718 47.9922422,47.4626764 47.7254516,47.4626764 L5.83251387,47.4626764 C5.56572331,47.4626764 5.34901294,47.2846718 5.34901294,47.0659912 L5.34901294,1.84647149 C5.34901294,1.62816395 5.56572331,1.45015935 5.83251387,1.45015935 L47.7254516,1.45015935 C47.9922422,1.45015935 48.2089524,1.62816395 48.2089524,1.84647149 L48.2089524,47.0659912 Z" id="Shape"></path>
                </g>
            </g>
        </g>
    </g>
</svg>