<?xml version="1.0" encoding="UTF-8"?>
<svg width="50px" height="39px" viewBox="0 0 50 39" version="1.1" xmlns="http://www.w3.org/2000/svg" xmlns:xlink="http://www.w3.org/1999/xlink">
    <!-- Generator: Sketch 43.1 (39012) - http://www.bohemiancoding.com/sketch -->
    <title>Group 3</title>
    <desc>Created with Sketch.</desc>
    <defs></defs>
    <g id="Page-1" stroke="none" stroke-width="1" fill="none" fill-rule="evenodd">
        <g id="Desktop-About-Copy" transform="translate(-300.000000, -1206.000000)" fill-rule="nonzero" fill="#D7263D">
            <g id="Group-3" transform="translate(300.000000, 1206.000000)">
                <g id="responsive-design-symbol">
                    <path d="M38.3400504,35.881738 L32.8968514,35.881738 C32.7003778,35.881738 32.5399244,35.7214106 32.5399244,35.5248111 L32.5399244,34.1998741 C32.5399244,34.0035264 32.3793451,33.8429471 32.1829975,33.8429471 L24.5664987,33.8429471 C24.3700252,33.8429471 24.2094458,34.0035264 24.2094458,34.1998741 L24.2094458,35.5248111 C24.2094458,35.7214106 24.0488665,35.881738 23.8523929,35.881738 L19.7603275,35.881738 C19.5638539,35.881738 19.4032746,36.0423174 19.4032746,36.238665 L19.4032746,37.7714106 C19.4032746,37.9677582 19.5638539,38.1283375 19.7603275,38.1283375 L38.3397985,38.1283375 C38.5361461,38.1283375 38.6967254,37.9677582 38.6967254,37.7714106 L38.6967254,36.238665 C38.6969773,36.0426952 38.536398,35.881738 38.3400504,35.881738 Z" id="Shape"></path>
                    <g id="Group">
                        <path d="M47.4851385,0.0463476071 L8.64382872,0.0463476071 C7.29244332,0.0463476071 6.19307305,1.14584383 6.19307305,2.49748111 L6.19307305,8.89055416 C6.19307305,9.73576826 6.13035264,9.85528967 6.69735516,9.85528967 L7.66964736,9.85528967 C8.14546599,9.85528967 8.04785894,9.73576826 8.04785894,8.87481108 L8.04785894,2.49748111 C8.04785894,2.17443325 8.3209068,1.90138539 8.64382872,1.90138539 L47.4851385,1.90138539 C47.8079345,1.90138539 48.0809824,2.17443325 48.0809824,2.49748111 L48.0809824,26.4268262 L20.3895466,26.4268262 C20.3895466,26.4268262 19.413602,26.425063 19.413602,27.6870277 L19.413602,30.6802267 C19.413602,31.9404282 20.4211587,31.9404282 20.4211587,31.9404282 L47.4851385,31.9404282 C48.836398,31.9404282 49.9361461,30.8410579 49.9361461,29.4896725 L49.9361461,2.49748111 C49.9361461,1.14596977 48.8366499,0.0463476071 47.4851385,0.0463476071 Z M28.0646096,29.8241814 C27.4544081,29.8241814 26.9599496,29.3297229 26.9599496,28.7198992 C26.9599496,28.1100756 27.4544081,27.6153652 28.0646096,27.6153652 C28.6741814,27.6153652 29.1687657,28.1100756 29.1687657,28.7198992 C29.1687657,29.3297229 28.6741814,29.8241814 28.0646096,29.8241814 Z" id="Shape"></path>
                        <path d="M15.6328715,12.0444584 L1.58173804,12.0444584 C0.709319899,12.0444584 0,12.7539043 0,13.6263224 L0,36.7210327 C0,37.5933249 0.709319899,38.3030227 1.58173804,38.3030227 L15.6328715,38.3030227 C16.5047859,38.3030227 17.2146096,37.5933249 17.2146096,36.7210327 L17.2146096,13.6263224 C17.2146096,12.7539043 16.5047859,12.0444584 15.6328715,12.0444584 Z M6.87405542,13.6578086 L10.3404282,13.6578086 C10.5057935,13.6578086 10.6401763,13.7918136 10.6401763,13.9576826 C10.6401763,14.1231738 10.5059194,14.2573048 10.3404282,14.2573048 L6.87405542,14.2573048 C6.70843829,14.2573048 6.57443325,14.1231738 6.57443325,13.9576826 C6.57443325,13.7918136 6.70843829,13.6578086 6.87405542,13.6578086 Z M8.58627204,37.1919395 C8.13413098,37.1919395 7.76763224,36.8254408 7.76763224,36.3732997 C7.76763224,35.9211587 8.13413098,35.5546599 8.58627204,35.5546599 C9.0384131,35.5546599 9.40491184,35.9211587 9.40491184,36.3732997 C9.40491184,36.8254408 9.0384131,37.1919395 8.58627204,37.1919395 Z M15.8555416,34.7858942 C15.8555416,34.9969773 15.6865239,35.1696474 15.4802267,35.1696474 L1.73476071,35.1696474 C1.52833753,35.1696474 1.35944584,34.9969773 1.35944584,34.7858942 L1.35944584,15.5950882 C1.35944584,15.384005 1.52846348,15.211461 1.73476071,15.211461 L15.4802267,15.211461 C15.6866499,15.211461 15.8555416,15.384131 15.8555416,15.5950882 L15.8555416,34.7858942 Z" id="Shape"></path>
                    </g>
                </g>
            </g>
        </g>
    </g>
</svg>